REM DIRINDEX 1\2,1\3
REM DIRNAME cjc143,folder01,folder02
TITLE ""
FILE "2000 phrasesTrack31.mp3" MP3
  TRACK 01 AUDIO
    TITLE "2:cjc143_1038"
    INDEX 01 00:00:00
  TRACK 02 AUDIO
    TITLE "0:"
    INDEX 01 00:00:52
  TRACK 03 AUDIO
    TITLE "2:cjc143_1039"
    INDEX 01 00:01:22
  TRACK 04 AUDIO
    TITLE "0:"
    INDEX 01 00:03:04
  TRACK 05 AUDIO
    TITLE "2:cjc143_1040"
    INDEX 01 00:03:74
  TRACK 06 AUDIO
    TITLE "0:"
    INDEX 01 00:05:52
  TRACK 07 AUDIO
    TITLE "2:cjc143_1041"
    INDEX 01 00:06:24
  TRACK 08 AUDIO
    TITLE "0:"
    INDEX 01 00:07:60
  TRACK 09 AUDIO
    TITLE "2:cjc143_1042"
    INDEX 01 00:08:32
  TRACK 10 AUDIO
    TITLE "0:"
    INDEX 01 00:10:19
  TRACK 11 AUDIO
    TITLE "2:cjc143_1043"
    INDEX 01 00:10:65
  TRACK 12 AUDIO
    TITLE "0:"
    INDEX 01 00:12:65
  TRACK 13 AUDIO
    TITLE "2:cjc143_1044"
    INDEX 01 00:13:35
  TRACK 14 AUDIO
    TITLE "0:"
    INDEX 01 00:14:53
  TRACK 15 AUDIO
    TITLE "2:cjc143_1045"
    INDEX 01 00:15:23
  TRACK 16 AUDIO
    TITLE "0:"
    INDEX 01 00:16:49
  TRACK 17 AUDIO
    TITLE "2:cjc143_1046"
    INDEX 01 00:17:20
  TRACK 18 AUDIO
    TITLE "0:"
    INDEX 01 00:18:46
  TRACK 19 AUDIO
    TITLE "2:cjc143_1047"
    INDEX 01 00:19:20
  TRACK 20 AUDIO
    TITLE "0:"
    INDEX 01 00:20:55
  TRACK 21 AUDIO
    TITLE "2:cjc143_1048"
    INDEX 01 00:21:29
  TRACK 22 AUDIO
    TITLE "0:"
    INDEX 01 00:22:54
  TRACK 23 AUDIO
    TITLE "2:cjc143_1049"
    INDEX 01 00:23:30
  TRACK 24 AUDIO
    TITLE "0:"
    INDEX 01 00:25:07
  TRACK 25 AUDIO
    TITLE "2:cjc143_1050"
    INDEX 01 00:25:50
  TRACK 26 AUDIO
    TITLE "0:"
    INDEX 01 00:27:39
  TRACK 27 AUDIO
    TITLE "2:cjc143_1051"
    INDEX 01 00:28:12
  TRACK 28 AUDIO
    TITLE "0:"
    INDEX 01 00:30:24
  TRACK 29 AUDIO
    TITLE "2:cjc143_1052"
    INDEX 01 00:30:71
  TRACK 30 AUDIO
    TITLE "0:"
    INDEX 01 00:32:62
  TRACK 31 AUDIO
    TITLE "2:cjc143_1053"
    INDEX 01 00:33:32
  TRACK 32 AUDIO
    TITLE "0:"
    INDEX 01 00:34:63
  TRACK 33 AUDIO
    TITLE "2:cjc143_1054"
    INDEX 01 00:35:33
  TRACK 34 AUDIO
    TITLE "0:"
    INDEX 01 00:36:66
  TRACK 35 AUDIO
    TITLE "2:cjc143_1055"
    INDEX 01 00:37:36
  TRACK 36 AUDIO
    TITLE "0:"
    INDEX 01 00:39:13
  TRACK 37 AUDIO
    TITLE "2:cjc143_1056"
    INDEX 01 00:39:58
  TRACK 38 AUDIO
    TITLE "0:"
    INDEX 01 00:41:47
  TRACK 39 AUDIO
    TITLE "2:cjc143_1057"
    INDEX 01 00:42:14
  TRACK 40 AUDIO
    TITLE "0:"
    INDEX 01 00:43:39
  TRACK 41 AUDIO
    TITLE "2:cjc143_1058"
    INDEX 01 00:44:07
  TRACK 42 AUDIO
    TITLE "0:"
    INDEX 01 00:45:49
  TRACK 43 AUDIO
    TITLE "2:cjc143_1059"
    INDEX 01 00:46:17
  TRACK 44 AUDIO
    TITLE "0:"
    INDEX 01 00:47:46
  TRACK 45 AUDIO
    TITLE "2:cjc143_1060"
    INDEX 01 00:48:20
  TRACK 46 AUDIO
    TITLE "0:"
    INDEX 01 00:49:53
  TRACK 47 AUDIO
    TITLE "2:cjc143_1061"
    INDEX 01 00:50:21
  TRACK 48 AUDIO
    TITLE "0:"
    INDEX 01 00:52:02
  TRACK 49 AUDIO
    TITLE "2:cjc143_1062"
    INDEX 01 00:52:47
  TRACK 50 AUDIO
    TITLE "0:"
    INDEX 01 00:54:44
  TRACK 51 AUDIO
    TITLE "2:cjc143_1063"
    INDEX 01 00:55:10
  TRACK 52 AUDIO
    TITLE "0:"
    INDEX 01 00:56:55
  TRACK 53 AUDIO
    TITLE "2:cjc143_1064"
    INDEX 01 00:57:23
  TRACK 54 AUDIO
    TITLE "0:"
    INDEX 01 00:58:66
  TRACK 55 AUDIO
    TITLE "2:cjc143_1065"
    INDEX 01 00:59:32
  TRACK 56 AUDIO
    TITLE "0:"
    INDEX 01 01:00:74
  TRACK 57 AUDIO
    TITLE "2:cjc143_1066"
    INDEX 01 01:01:40
  TRACK 58 AUDIO
    TITLE "0:"
    INDEX 01 01:03:20
  TRACK 59 AUDIO
    TITLE "2:cjc143_1067"
    INDEX 01 01:03:65
  TRACK 60 AUDIO
    TITLE "0:"
    INDEX 01 01:05:58
  TRACK 61 AUDIO
    TITLE "2:cjc143_1068"
    INDEX 01 01:06:34
  TRACK 62 AUDIO
    TITLE "0:"
    INDEX 01 01:08:05
  TRACK 63 AUDIO
    TITLE "2:cjc143_1069"
    INDEX 01 01:08:50
  TRACK 64 AUDIO
    TITLE "0:"
    INDEX 01 01:10:24
  TRACK 65 AUDIO
    TITLE "2:cjc143_1070"
    INDEX 01 01:10:69
  TRACK 66 AUDIO
    TITLE "0:"
    INDEX 01 01:12:34
  TRACK 67 AUDIO
    TITLE "2:cjc143_1071"
    INDEX 01 01:13:04
  TRACK 68 AUDIO
    TITLE "0:"
    INDEX 01 01:14:45
  TRACK 69 AUDIO
    TITLE "2:cjc143_1072"
    INDEX 01 01:15:13
  TRACK 70 AUDIO
    TITLE "0:"
    INDEX 01 01:17:02
  TRACK 71 AUDIO
    TITLE "2:cjc143_1073"
    INDEX 01 01:17:43
  TRACK 72 AUDIO
    TITLE "0:"
    INDEX 01 01:19:32
  TRACK 73 AUDIO
    TITLE "2:cjc143_1074"
    INDEX 01 01:20:04
  TRACK 74 AUDIO
    TITLE "0:"
    INDEX 01 01:21:70
  TRACK 75 AUDIO
    TITLE "2:cjc143_1075"
    INDEX 01 01:22:39
  TRACK 76 AUDIO
    TITLE "0:"
    INDEX 01 01:24:24
  TRACK 77 AUDIO
    TITLE "2:cjc143_1076"
    INDEX 01 01:24:67
  TRACK 78 AUDIO
    TITLE "0:"
    INDEX 01 01:26:50
  TRACK 79 AUDIO
    TITLE "2:cjc143_1077"
    INDEX 01 01:27:20
  TRACK 80 AUDIO
    TITLE "0:"
    INDEX 01 01:28:55
  TRACK 81 AUDIO
    TITLE "2:cjc143_1078"
    INDEX 01 01:29:25
  TRACK 82 AUDIO
    TITLE "0:"
    INDEX 01 01:30:73
  TRACK 83 AUDIO
    TITLE "2:cjc143_1079"
    INDEX 01 01:31:43
  TRACK 84 AUDIO
    TITLE "0:"
    INDEX 01 01:33:25
  TRACK 85 AUDIO
    TITLE "2:cjc143_1080"
    INDEX 01 01:33:68
  TRACK 86 AUDIO
    TITLE "0:"
    INDEX 01 01:35:71
  TRACK 87 AUDIO
    TITLE "2:cjc143_1081"
    INDEX 01 01:36:39
  TRACK 88 AUDIO
    TITLE "0:"
    INDEX 01 01:38:47
  TRACK 89 AUDIO
    TITLE "2:cjc143_1082"
    INDEX 01 01:39:19
  TRACK 90 AUDIO
    TITLE "0:"
    INDEX 01 01:40:50
  TRACK 91 AUDIO
    TITLE "2:cjc143_1083"
    INDEX 01 01:41:20
  TRACK 92 AUDIO
    TITLE "0:"
    INDEX 01 01:42:43
  TRACK 93 AUDIO
    TITLE "2:cjc143_1084"
    INDEX 01 01:43:15
  TRACK 94 AUDIO
    TITLE "0:"
    INDEX 01 01:44:56
  TRACK 95 AUDIO
    TITLE "2:cjc143_1085"
    INDEX 01 01:45:28
  TRACK 96 AUDIO
    TITLE "0:"
    INDEX 01 01:46:61
  TRACK 97 AUDIO
    TITLE "2:cjc143_1086"
    INDEX 01 01:47:29
  TRACK 98 AUDIO
    TITLE "0:"
    INDEX 01 01:49:04
  TRACK 99 AUDIO
    TITLE "2:cjc143_1087"
    INDEX 01 01:49:55
  TRACK 100 AUDIO
    TITLE "0:"
    INDEX 01 01:51:23
  TRACK 101 AUDIO
    TITLE "2:cjc143_1088"
    INDEX 01 01:51:70
  TRACK 102 AUDIO
    TITLE "0:"
    INDEX 01 01:53:39
  TRACK 103 AUDIO
    TITLE "2:cjc143_1089"
    INDEX 01 01:54:07
  TRACK 104 AUDIO
    TITLE "0:"
    INDEX 01 01:55:26
  TRACK 105 AUDIO
    TITLE "2:cjc143_1090"
    INDEX 01 01:55:69
  TRACK 106 AUDIO
    TITLE "0:"
    INDEX 01 01:57:27
  TRACK 107 AUDIO
    TITLE "2:cjc143_1091"
    INDEX 01 01:57:74
  TRACK 108 AUDIO
    TITLE "0:"
    INDEX 01 01:59:22
  TRACK 109 AUDIO
    TITLE "2:cjc143_1092"
    INDEX 01 01:59:69
  TRACK 110 AUDIO
    TITLE "0:"
    INDEX 01 02:01:50
  TRACK 111 AUDIO
    TITLE "2:cjc143_1093"
    INDEX 01 02:02:22
  TRACK 112 AUDIO
    TITLE "0:"
    INDEX 01 02:04:02
  TRACK 113 AUDIO
    TITLE "2:cjc143_1094"
    INDEX 01 02:04:45
  TRACK 114 AUDIO
    TITLE "0:"
    INDEX 01 02:05:74
  TRACK 115 AUDIO
    TITLE "2:cjc143_1095"
    INDEX 01 02:06:46
  TRACK 116 AUDIO
    TITLE "0:"
    INDEX 01 02:08:09
  TRACK 117 AUDIO
    TITLE "2:cjc143_1096"
    INDEX 01 02:08:52
  TRACK 118 AUDIO
    TITLE "0:"
    INDEX 01 02:10:10
  TRACK 119 AUDIO
    TITLE "2:cjc143_1097"
    INDEX 01 02:10:55
  TRACK 120 AUDIO
    TITLE "0:"
    INDEX 01 02:12:19
  TRACK 121 AUDIO
    TITLE "2:cjc143_1098"
    INDEX 01 02:12:66
  TRACK 122 AUDIO
    TITLE "0:"
    INDEX 01 02:14:57
  TRACK 123 AUDIO
    TITLE "2:cjc143_1099"
    INDEX 01 02:15:33
  TRACK 124 AUDIO
    TITLE "0:"
    INDEX 01 02:17:24
  TRACK 125 AUDIO
    TITLE "2:cjc143_1100"
    INDEX 01 02:17:71
  TRACK 126 AUDIO
    TITLE "0:"
    INDEX 01 02:19:42
  TRACK 127 AUDIO
    TITLE "2:cjc143_1101"
    INDEX 01 02:20:11
  TRACK 128 AUDIO
    TITLE "0:"
    INDEX 01 02:22:07
  TRACK 129 AUDIO
    TITLE "2:cjc143_1102"
    INDEX 01 02:22:54
  TRACK 130 AUDIO
    TITLE "0:"
    INDEX 01 02:24:42
  TRACK 131 AUDIO
    TITLE "2:cjc143_1103"
    INDEX 01 02:25:10
  TRACK 132 AUDIO
    TITLE "0:"
    INDEX 01 02:26:68
  TRACK 133 AUDIO
    TITLE "2:cjc143_1104"
    INDEX 01 02:27:38
  TRACK 134 AUDIO
    TITLE "0:"
    INDEX 01 02:29:21
  TRACK 135 AUDIO
    TITLE "2:cjc143_1105"
    INDEX 01 02:29:70
  TRACK 136 AUDIO
    TITLE "0:"
    INDEX 01 02:31:32
  TRACK 137 AUDIO
    TITLE "2:cjc143_1106"
    INDEX 01 02:32:08
  TRACK 138 AUDIO
    TITLE "0:"
    INDEX 01 02:33:41
  TRACK 139 AUDIO
    TITLE "2:cjc143_1107"
    INDEX 01 02:34:11
  TRACK 140 AUDIO
    TITLE "0:"
    INDEX 01 02:35:43
  TRACK 141 AUDIO
    TITLE "2:cjc143_1108"
    INDEX 01 02:36:13
  TRACK 142 AUDIO
    TITLE "0:"
    INDEX 01 02:37:66
  TRACK 143 AUDIO
    TITLE "2:cjc143_1109"
    INDEX 01 02:38:40
  TRACK 144 AUDIO
    TITLE "0:"
    INDEX 01 02:39:69
  TRACK 145 AUDIO
    TITLE "2:cjc143_1110"
    INDEX 01 02:40:43
  TRACK 146 AUDIO
    TITLE "0:"
    INDEX 01 02:42:26
